<svg width="25" height="24" viewBox="0 0 25 24" fill="none" xmlns="http://www.w3.org/2000/svg">
<g clip-path="url(#clip0_257_2665)">
<path d="M12.754 0.850586C16.6624 0.850586 19.8388 3.72483 19.8388 7.27982C19.8388 12.099 12.754 19.2198 12.754 19.2198C12.754 19.2198 5.66921 12.099 5.66921 7.27982C5.66921 3.72483 8.84556 0.850586 12.754 0.850586ZM12.754 5.17276C12.1277 5.17276 11.527 5.40044 11.0841 5.80573C10.6412 6.21101 10.3924 6.76069 10.3924 7.33384C10.3924 7.907 10.6412 8.45668 11.0841 8.86196C11.527 9.26724 12.1277 9.49493 12.754 9.49493C13.3803 9.49493 13.981 9.26724 14.4239 8.86196C14.8668 8.45668 15.1156 7.907 15.1156 7.33384C15.1156 6.76069 14.8668 6.21101 14.4239 5.80573C13.981 5.40044 13.3803 5.17276 12.754 5.17276ZM22.2004 19.2198C22.2004 21.6078 17.9731 23.542 12.754 23.542C7.53487 23.542 3.30762 21.6078 3.30762 19.2198C3.30762 17.8259 4.74819 16.5833 6.9799 15.7945L7.73561 16.7778C6.46035 17.264 5.66921 17.934 5.66921 18.6795C5.66921 20.1707 8.84556 21.3809 12.754 21.3809C16.6624 21.3809 19.8388 20.1707 19.8388 18.6795C19.8388 17.934 19.0476 17.264 17.7724 16.7778L18.5281 15.7945C20.7598 16.5833 22.2004 17.8259 22.2004 19.2198Z" fill="#332749"/>
</g>
<defs>
<clipPath id="clip0_257_2665">
<rect width="24" height="23" fill="white" transform="translate(0.753906 0.541992)"/>
</clipPath>
</defs>
</svg>
